<?xml version="1.0" encoding="utf-8"?>
<!-- Generator: Adobe Illustrator 15.1.0, SVG Export Plug-In . SVG Version: 6.00 Build 0)  -->
<!DOCTYPE svg PUBLIC "-//W3C//DTD SVG 1.1//EN" "http://www.w3.org/Graphics/SVG/1.1/DTD/svg11.dtd">
<svg version="1.1" xmlns="http://www.w3.org/2000/svg" xmlns:xlink="http://www.w3.org/1999/xlink" x="0px" y="0px" width="400px"
	 height="350px" viewBox="0 0 400 350" enable-background="new 0 0 400 350" xml:space="preserve">
<g id="Camada_3">
	<path fill="#D3D3D3" stroke="#000000" stroke-width="2" stroke-miterlimit="10" d="M282.5,90.025v146.5
		c0,5.661-4.589,10.25-10.25,10.25H209.5c-5.246,0-9.5,5.037-9.5,11.25c0-6.213-4.253-11.25-9.5-11.25h-62.75
		c-5.661,0-10.25-4.589-10.25-10.25v-146.5H282.5z"/>
	<path fill="#00ADF2" stroke="#000000" stroke-width="2" stroke-miterlimit="10" d="M117.5,138.275v98.25
		c0,5.661,4.589,10.25,10.25,10.25h62.75c5.247,0,9.5,5.037,9.5,11.25c0-6.213,4.254-11.25,9.5-11.25h62.75
		c5.661,0,10.25-4.589,10.25-10.25v-98.25H117.5z"/>
	<g display="none">
		<g display="inline">
			<polygon fill="#EF1C25" stroke="#000000" stroke-width="2" stroke-miterlimit="10" points="336.066,92.027 314.276,92.027 
				297.005,282.693 353.338,282.693 			"/>
			<g>
				
					<line fill="none" stroke="#000000" stroke-width="2" stroke-miterlimit="10" x1="352.304" y1="271.275" x2="298.039" y2="271.275"/>
				
					<line fill="none" stroke="#000000" stroke-width="2" stroke-miterlimit="10" x1="350.764" y1="254.275" x2="299.579" y2="254.275"/>
				
					<line fill="none" stroke="#000000" stroke-width="2" stroke-miterlimit="10" x1="349.405" y1="239.275" x2="300.938" y2="239.275"/>
				
					<line fill="none" stroke="#000000" stroke-width="2" stroke-miterlimit="10" x1="347.865" y1="222.275" x2="302.478" y2="222.275"/>
				
					<line fill="none" stroke="#000000" stroke-width="2" stroke-miterlimit="10" x1="346.597" y1="208.275" x2="303.746" y2="208.275"/>
				
					<line fill="none" stroke="#000000" stroke-width="2" stroke-miterlimit="10" x1="345.51" y1="196.275" x2="304.833" y2="196.275"/>
				
					<line fill="none" stroke="#000000" stroke-width="2" stroke-miterlimit="10" x1="344.332" y1="183.275" x2="306.011" y2="183.275"/>
				
					<line fill="none" stroke="#000000" stroke-width="2" stroke-miterlimit="10" x1="343.154" y1="170.275" x2="307.188" y2="170.275"/>
				
					<line fill="none" stroke="#000000" stroke-width="2" stroke-miterlimit="10" x1="341.978" y1="157.275" x2="308.365" y2="157.275"/>
				
					<line fill="none" stroke="#000000" stroke-width="2" stroke-miterlimit="10" x1="340.98" y1="146.275" x2="309.362" y2="146.275"/>
				
					<line fill="none" stroke="#000000" stroke-width="2" stroke-miterlimit="10" x1="340.075" y1="136.275" x2="310.268" y2="136.275"/>
				
					<line fill="none" stroke="#000000" stroke-width="2" stroke-miterlimit="10" x1="339.351" y1="128.275" x2="310.992" y2="128.275"/>
				
					<line fill="none" stroke="#000000" stroke-width="2" stroke-miterlimit="10" x1="338.625" y1="120.275" x2="311.717" y2="120.275"/>
				
					<line fill="none" stroke="#000000" stroke-width="2" stroke-miterlimit="10" x1="337.9" y1="112.275" x2="312.442" y2="112.275"/>
				
					<line fill="none" stroke="#000000" stroke-width="2" stroke-miterlimit="10" x1="337.176" y1="104.275" x2="313.167" y2="104.275"/>
				
					<line fill="none" stroke="#000000" stroke-width="2" stroke-miterlimit="10" x1="336.633" y1="98.275" x2="313.71" y2="98.275"/>
			</g>
			<g>
				
					<line fill="none" stroke="#000000" stroke-width="2" stroke-miterlimit="10" x1="325.172" y1="128.275" x2="325.172" y2="120.275"/>
				
					<line fill="none" stroke="#000000" stroke-width="2" stroke-miterlimit="10" x1="325.172" y1="146.275" x2="325.172" y2="136.275"/>
				
					<line fill="none" stroke="#000000" stroke-width="2" stroke-miterlimit="10" x1="325.172" y1="170.275" x2="325.172" y2="157.275"/>
				
					<line fill="none" stroke="#000000" stroke-width="2" stroke-miterlimit="10" x1="325.172" y1="112.275" x2="325.172" y2="104.275"/>
				
					<line fill="none" stroke="#000000" stroke-width="2" stroke-miterlimit="10" x1="325.172" y1="282.693" x2="325.172" y2="271.275"/>
				
					<line fill="none" stroke="#000000" stroke-width="2" stroke-miterlimit="10" x1="325.172" y1="196.275" x2="325.172" y2="183.275"/>
				
					<line fill="none" stroke="#000000" stroke-width="2" stroke-miterlimit="10" x1="325.172" y1="222.275" x2="325.172" y2="208.275"/>
				
					<line fill="none" stroke="#000000" stroke-width="2" stroke-miterlimit="10" x1="325.172" y1="254.275" x2="325.172" y2="239.275"/>
			</g>
			<g>
				
					<line fill="none" stroke="#000000" stroke-width="2" stroke-miterlimit="10" x1="334.11" y1="170.275" x2="334.695" y2="183.275"/>
				
					<line fill="none" stroke="#000000" stroke-width="2" stroke-miterlimit="10" x1="335.281" y1="196.275" x2="335.821" y2="208.275"/>
				
					<line fill="none" stroke="#000000" stroke-width="2" stroke-miterlimit="10" x1="333.029" y1="146.275" x2="333.524" y2="157.275"/>
				
					<line fill="none" stroke="#000000" stroke-width="2" stroke-miterlimit="10" x1="330.587" y1="92.027" x2="331.139" y2="104.275"/>
				
					<line fill="none" stroke="#000000" stroke-width="2" stroke-miterlimit="10" x1="337.893" y1="254.275" x2="338.658" y2="271.275"/>
				
					<line fill="none" stroke="#000000" stroke-width="2" stroke-miterlimit="10" x1="336.451" y1="222.275" x2="337.217" y2="239.275"/>
				
					<line fill="none" stroke="#000000" stroke-width="2" stroke-miterlimit="10" x1="331.499" y1="112.275" x2="331.859" y2="120.275"/>
				
					<line fill="none" stroke="#000000" stroke-width="2" stroke-miterlimit="10" x1="332.219" y1="128.275" x2="332.579" y2="136.275"/>
			</g>
			<g>
				
					<line fill="none" stroke="#000000" stroke-width="2" stroke-miterlimit="10" x1="316.233" y1="170.275" x2="315.647" y2="183.275"/>
				
					<line fill="none" stroke="#000000" stroke-width="2" stroke-miterlimit="10" x1="315.063" y1="196.275" x2="314.522" y2="208.275"/>
				
					<line fill="none" stroke="#000000" stroke-width="2" stroke-miterlimit="10" x1="317.313" y1="146.275" x2="316.818" y2="157.275"/>
				
					<line fill="none" stroke="#000000" stroke-width="2" stroke-miterlimit="10" x1="319.756" y1="92.027" x2="319.205" y2="104.275"/>
				
					<line fill="none" stroke="#000000" stroke-width="2" stroke-miterlimit="10" x1="312.451" y1="254.275" x2="311.686" y2="271.275"/>
				
					<line fill="none" stroke="#000000" stroke-width="2" stroke-miterlimit="10" x1="313.892" y1="222.275" x2="313.127" y2="239.275"/>
				
					<line fill="none" stroke="#000000" stroke-width="2" stroke-miterlimit="10" x1="318.845" y1="112.275" x2="318.484" y2="120.275"/>
				
					<line fill="none" stroke="#000000" stroke-width="2" stroke-miterlimit="10" x1="318.124" y1="128.275" x2="317.764" y2="136.275"/>
			</g>
		</g>
	</g>
	<g>
		<g>
			<polygon fill="#EF1C25" stroke="#000000" stroke-width="2" stroke-miterlimit="10" points="337.395,92.026 315.604,92.026 
				298.334,282.693 354.666,282.693 			"/>
			<g>
				
					<line fill="none" stroke="#000000" stroke-width="2" stroke-miterlimit="10" x1="353.633" y1="271.275" x2="299.367" y2="271.275"/>
				
					<line fill="none" stroke="#000000" stroke-width="2" stroke-miterlimit="10" x1="352.092" y1="254.275" x2="300.906" y2="254.275"/>
				
					<line fill="none" stroke="#000000" stroke-width="2" stroke-miterlimit="10" x1="350.732" y1="239.275" x2="302.266" y2="239.275"/>
				
					<line fill="none" stroke="#000000" stroke-width="2" stroke-miterlimit="10" x1="349.193" y1="222.275" x2="303.807" y2="222.275"/>
				
					<line fill="none" stroke="#000000" stroke-width="2" stroke-miterlimit="10" x1="347.926" y1="208.275" x2="305.074" y2="208.275"/>
				
					<line fill="none" stroke="#000000" stroke-width="2" stroke-miterlimit="10" x1="346.838" y1="196.275" x2="306.16" y2="196.275"/>
				
					<line fill="none" stroke="#000000" stroke-width="2" stroke-miterlimit="10" x1="345.66" y1="183.275" x2="307.34" y2="183.275"/>
				
					<line fill="none" stroke="#000000" stroke-width="2" stroke-miterlimit="10" x1="344.482" y1="170.275" x2="308.516" y2="170.275"/>
				
					<line fill="none" stroke="#000000" stroke-width="2" stroke-miterlimit="10" x1="343.307" y1="157.275" x2="309.693" y2="157.275"/>
				
					<line fill="none" stroke="#000000" stroke-width="2" stroke-miterlimit="10" x1="342.309" y1="146.275" x2="310.689" y2="146.275"/>
				
					<line fill="none" stroke="#000000" stroke-width="2" stroke-miterlimit="10" x1="341.402" y1="136.275" x2="311.596" y2="136.275"/>
				
					<line fill="none" stroke="#000000" stroke-width="2" stroke-miterlimit="10" x1="340.68" y1="128.275" x2="312.32" y2="128.275"/>
				
					<line fill="none" stroke="#000000" stroke-width="2" stroke-miterlimit="10" x1="339.953" y1="120.275" x2="313.045" y2="120.275"/>
				
					<line fill="none" stroke="#000000" stroke-width="2" stroke-miterlimit="10" x1="339.229" y1="112.275" x2="313.77" y2="112.275"/>
				
					<line fill="none" stroke="#000000" stroke-width="2" stroke-miterlimit="10" x1="338.504" y1="104.275" x2="314.494" y2="104.275"/>
				
					<line fill="none" stroke="#000000" stroke-width="2" stroke-miterlimit="10" x1="337.961" y1="98.275" x2="315.039" y2="98.275"/>
			</g>
			<g>
				<line fill="none" stroke="#000000" stroke-width="2" stroke-miterlimit="10" x1="326.5" y1="128.275" x2="326.5" y2="120.275"/>
				<line fill="none" stroke="#000000" stroke-width="2" stroke-miterlimit="10" x1="326.5" y1="146.275" x2="326.5" y2="136.275"/>
				<line fill="none" stroke="#000000" stroke-width="2" stroke-miterlimit="10" x1="326.5" y1="170.275" x2="326.5" y2="157.275"/>
				<line fill="none" stroke="#000000" stroke-width="2" stroke-miterlimit="10" x1="326.5" y1="112.275" x2="326.5" y2="104.275"/>
				<line fill="none" stroke="#000000" stroke-width="2" stroke-miterlimit="10" x1="326.5" y1="282.693" x2="326.5" y2="271.275"/>
				<line fill="none" stroke="#000000" stroke-width="2" stroke-miterlimit="10" x1="326.5" y1="196.275" x2="326.5" y2="183.275"/>
				<line fill="none" stroke="#000000" stroke-width="2" stroke-miterlimit="10" x1="326.5" y1="222.275" x2="326.5" y2="208.275"/>
				<line fill="none" stroke="#000000" stroke-width="2" stroke-miterlimit="10" x1="326.5" y1="254.275" x2="326.5" y2="239.275"/>
			</g>
			<g>
				
					<line fill="none" stroke="#000000" stroke-width="2" stroke-miterlimit="10" x1="335.438" y1="170.275" x2="336.023" y2="183.275"/>
				
					<line fill="none" stroke="#000000" stroke-width="2" stroke-miterlimit="10" x1="336.609" y1="196.275" x2="337.148" y2="208.275"/>
				
					<line fill="none" stroke="#000000" stroke-width="2" stroke-miterlimit="10" x1="334.357" y1="146.275" x2="334.852" y2="157.275"/>
				
					<line fill="none" stroke="#000000" stroke-width="2" stroke-miterlimit="10" x1="331.725" y1="92.026" x2="332.006" y2="98.275"/>
				
					<line fill="none" stroke="#000000" stroke-width="2" stroke-miterlimit="10" x1="339.221" y1="254.275" x2="339.986" y2="271.275"/>
				
					<line fill="none" stroke="#000000" stroke-width="2" stroke-miterlimit="10" x1="337.779" y1="222.275" x2="338.545" y2="239.275"/>
				
					<line fill="none" stroke="#000000" stroke-width="2" stroke-miterlimit="10" x1="332.826" y1="112.275" x2="333.188" y2="120.275"/>
				
					<line fill="none" stroke="#000000" stroke-width="2" stroke-miterlimit="10" x1="333.547" y1="128.275" x2="333.906" y2="136.275"/>
			</g>
			<g>
				
					<line fill="none" stroke="#000000" stroke-width="2" stroke-miterlimit="10" x1="317.561" y1="170.275" x2="316.975" y2="183.275"/>
				
					<line fill="none" stroke="#000000" stroke-width="2" stroke-miterlimit="10" x1="316.391" y1="196.275" x2="315.85" y2="208.275"/>
				
					<line fill="none" stroke="#000000" stroke-width="2" stroke-miterlimit="10" x1="318.641" y1="146.275" x2="318.146" y2="157.275"/>
				
					<line fill="none" stroke="#000000" stroke-width="2" stroke-miterlimit="10" x1="321.279" y1="92.026" x2="321.004" y2="98.151"/>
				
					<line fill="none" stroke="#000000" stroke-width="2" stroke-miterlimit="10" x1="313.779" y1="254.275" x2="313.014" y2="271.275"/>
				
					<line fill="none" stroke="#000000" stroke-width="2" stroke-miterlimit="10" x1="315.221" y1="222.275" x2="314.455" y2="239.275"/>
				
					<line fill="none" stroke="#000000" stroke-width="2" stroke-miterlimit="10" x1="320.174" y1="112.275" x2="319.813" y2="120.275"/>
				
					<line fill="none" stroke="#000000" stroke-width="2" stroke-miterlimit="10" x1="319.451" y1="128.275" x2="319.092" y2="136.275"/>
			</g>
		</g>
		<path fill="#EF1C25" stroke="#000000" stroke-width="2" stroke-miterlimit="10" d="M342.828,101.525c0,1.933-1.566,3.5-3.5,3.5
			h-25.656c-1.932,0-3.5-1.567-3.5-3.5l0,0c0-1.933,1.568-3.5,3.5-3.5h25.656C341.262,98.025,342.828,99.592,342.828,101.525
			L342.828,101.525z"/>
		<path d="M336.977,92.588c0.063-1.875-2.688-6.188-2.375-9.584c0.52-5.65,4.375-14.253-2-20.553c1.563,5.825,1.5,8.138-0.5,11.075
			s-2.336,6.47-2.336,9.095s2.336,7.468,2.336,9.968H336.977z"/>
		<path d="M328.352,92.588c0.057-1.728-2.477-5.7-2.188-8.83c0.479-5.206,4.029-13.131-1.844-18.935
			c1.439,5.367,1.383,7.497-0.461,10.204c-1.842,2.706-1.906,5.7-1.906,8.119c0,2.418,1.906,7.14,1.906,9.443H328.352z"/>
		<path d="M320.289,92.588c0.041-1.24-1.777-4.093-1.57-6.34c0.344-3.738,2.893-9.428-1.324-13.595
			c1.033,3.854,0.992,5.383-0.33,7.326c-1.324,1.943-1.486,4.093-1.486,5.829c0,1.736,1.486,5.126,1.486,6.78H320.289z"/>
	</g>
	<g>
		<g>
			<polygon fill="#EF1C25" stroke="#000000" stroke-width="2" stroke-miterlimit="10" points="84.394,92.026 62.604,92.026 
				45.333,282.693 101.667,282.693 			"/>
			<g>
				
					<line fill="none" stroke="#000000" stroke-width="2" stroke-miterlimit="10" x1="100.632" y1="271.275" x2="46.367" y2="271.275"/>
				
					<line fill="none" stroke="#000000" stroke-width="2" stroke-miterlimit="10" x1="99.092" y1="254.275" x2="47.907" y2="254.275"/>
				
					<line fill="none" stroke="#000000" stroke-width="2" stroke-miterlimit="10" x1="97.733" y1="239.275" x2="49.266" y2="239.275"/>
				
					<line fill="none" stroke="#000000" stroke-width="2" stroke-miterlimit="10" x1="96.193" y1="222.275" x2="50.806" y2="222.275"/>
				
					<line fill="none" stroke="#000000" stroke-width="2" stroke-miterlimit="10" x1="94.925" y1="208.275" x2="52.074" y2="208.275"/>
				
					<line fill="none" stroke="#000000" stroke-width="2" stroke-miterlimit="10" x1="93.838" y1="196.275" x2="53.161" y2="196.275"/>
				
					<line fill="none" stroke="#000000" stroke-width="2" stroke-miterlimit="10" x1="92.66" y1="183.275" x2="54.339" y2="183.275"/>
				
					<line fill="none" stroke="#000000" stroke-width="2" stroke-miterlimit="10" x1="91.482" y1="170.275" x2="55.516" y2="170.275"/>
				
					<line fill="none" stroke="#000000" stroke-width="2" stroke-miterlimit="10" x1="90.306" y1="157.275" x2="56.693" y2="157.275"/>
				
					<line fill="none" stroke="#000000" stroke-width="2" stroke-miterlimit="10" x1="89.308" y1="146.275" x2="57.69" y2="146.275"/>
				
					<line fill="none" stroke="#000000" stroke-width="2" stroke-miterlimit="10" x1="88.403" y1="136.275" x2="58.596" y2="136.275"/>
				
					<line fill="none" stroke="#000000" stroke-width="2" stroke-miterlimit="10" x1="87.679" y1="128.275" x2="59.32" y2="128.275"/>
				
					<line fill="none" stroke="#000000" stroke-width="2" stroke-miterlimit="10" x1="86.954" y1="120.275" x2="60.045" y2="120.275"/>
				
					<line fill="none" stroke="#000000" stroke-width="2" stroke-miterlimit="10" x1="86.228" y1="112.275" x2="60.77" y2="112.275"/>
				
					<line fill="none" stroke="#000000" stroke-width="2" stroke-miterlimit="10" x1="85.504" y1="104.275" x2="61.495" y2="104.275"/>
				<line fill="none" stroke="#000000" stroke-width="2" stroke-miterlimit="10" x1="84.961" y1="98.275" x2="62.039" y2="98.275"/>
			</g>
			<g>
				<line fill="none" stroke="#000000" stroke-width="2" stroke-miterlimit="10" x1="73.5" y1="128.275" x2="73.5" y2="120.275"/>
				<line fill="none" stroke="#000000" stroke-width="2" stroke-miterlimit="10" x1="73.5" y1="146.275" x2="73.5" y2="136.275"/>
				<line fill="none" stroke="#000000" stroke-width="2" stroke-miterlimit="10" x1="73.5" y1="170.275" x2="73.5" y2="157.275"/>
				<line fill="none" stroke="#000000" stroke-width="2" stroke-miterlimit="10" x1="73.5" y1="112.275" x2="73.5" y2="104.275"/>
				<line fill="none" stroke="#000000" stroke-width="2" stroke-miterlimit="10" x1="73.5" y1="282.693" x2="73.5" y2="271.275"/>
				<line fill="none" stroke="#000000" stroke-width="2" stroke-miterlimit="10" x1="73.5" y1="196.275" x2="73.5" y2="183.275"/>
				<line fill="none" stroke="#000000" stroke-width="2" stroke-miterlimit="10" x1="73.5" y1="222.275" x2="73.5" y2="208.275"/>
				<line fill="none" stroke="#000000" stroke-width="2" stroke-miterlimit="10" x1="73.5" y1="254.275" x2="73.5" y2="239.275"/>
			</g>
			<g>
				
					<line fill="none" stroke="#000000" stroke-width="2" stroke-miterlimit="10" x1="82.438" y1="170.275" x2="83.023" y2="183.275"/>
				
					<line fill="none" stroke="#000000" stroke-width="2" stroke-miterlimit="10" x1="83.609" y1="196.275" x2="84.149" y2="208.275"/>
				
					<line fill="none" stroke="#000000" stroke-width="2" stroke-miterlimit="10" x1="81.357" y1="146.275" x2="81.852" y2="157.275"/>
				<line fill="none" stroke="#000000" stroke-width="2" stroke-miterlimit="10" x1="78.724" y1="92.026" x2="79.005" y2="98.275"/>
				
					<line fill="none" stroke="#000000" stroke-width="2" stroke-miterlimit="10" x1="86.221" y1="254.275" x2="86.986" y2="271.275"/>
				
					<line fill="none" stroke="#000000" stroke-width="2" stroke-miterlimit="10" x1="84.779" y1="222.275" x2="85.545" y2="239.275"/>
				
					<line fill="none" stroke="#000000" stroke-width="2" stroke-miterlimit="10" x1="79.827" y1="112.275" x2="80.187" y2="120.275"/>
				
					<line fill="none" stroke="#000000" stroke-width="2" stroke-miterlimit="10" x1="80.547" y1="128.275" x2="80.907" y2="136.275"/>
			</g>
			<g>
				
					<line fill="none" stroke="#000000" stroke-width="2" stroke-miterlimit="10" x1="64.561" y1="170.275" x2="63.975" y2="183.275"/>
				
					<line fill="none" stroke="#000000" stroke-width="2" stroke-miterlimit="10" x1="63.391" y1="196.275" x2="62.85" y2="208.275"/>
				
					<line fill="none" stroke="#000000" stroke-width="2" stroke-miterlimit="10" x1="65.641" y1="146.275" x2="65.146" y2="157.275"/>
				<line fill="none" stroke="#000000" stroke-width="2" stroke-miterlimit="10" x1="68.28" y1="92.026" x2="68.004" y2="98.151"/>
				
					<line fill="none" stroke="#000000" stroke-width="2" stroke-miterlimit="10" x1="60.779" y1="254.275" x2="60.014" y2="271.275"/>
				
					<line fill="none" stroke="#000000" stroke-width="2" stroke-miterlimit="10" x1="62.22" y1="222.275" x2="61.456" y2="239.275"/>
				
					<line fill="none" stroke="#000000" stroke-width="2" stroke-miterlimit="10" x1="67.173" y1="112.275" x2="66.812" y2="120.275"/>
				
					<line fill="none" stroke="#000000" stroke-width="2" stroke-miterlimit="10" x1="66.452" y1="128.275" x2="66.092" y2="136.275"/>
			</g>
		</g>
		<path fill="#EF1C25" stroke="#000000" stroke-width="2" stroke-miterlimit="10" d="M89.829,101.525c0,1.933-1.567,3.5-3.5,3.5
			H60.672c-1.933,0-3.5-1.567-3.5-3.5l0,0c0-1.933,1.567-3.5,3.5-3.5h25.656C88.261,98.025,89.829,99.592,89.829,101.525
			L89.829,101.525z"/>
		<path d="M69.539,92.588c0.063-1.875-2.688-6.188-2.375-9.584c0.52-5.65,4.375-14.253-2-20.553c1.563,5.825,1.5,8.138-0.5,11.075
			s-2.335,6.47-2.335,9.095s2.335,7.468,2.335,9.968H69.539z"/>
		<path d="M83.57,92.588c0.058-1.728-2.476-5.7-2.188-8.83c0.479-5.206,4.03-13.131-1.843-18.935
			c1.439,5.367,1.382,7.497-0.461,10.204c-1.843,2.706-1.906,5.7-1.906,8.119c0,2.418,1.906,7.14,1.906,9.443H83.57z"/>
		<path d="M75.508,92.588c0.042-1.24-1.777-4.093-1.57-6.34c0.344-3.738,2.894-9.428-1.323-13.595
			c1.033,3.854,0.992,5.383-0.331,7.326c-1.323,1.943-1.485,4.093-1.485,5.829c0,1.736,1.485,5.126,1.485,6.78H75.508z"/>
	</g>
	<g id="Camada_6">
		<g>
			<g>
				<path fill="#D6D6D6" stroke="#000000" stroke-miterlimit="15" d="M256.198,164.567c2.167-1,2.75-3.917,1.417-5.833
					c-9,9.75-25,10.167-33.334,8.75c-8.332-1.417-8.333,0.333-9.833,4.917c-0.91,2.78-4.278,3.193-8.197,2.665
					c-0.812-1.513-1.438-3.326-1.438-5.352c0-5.813,2.063-9.313,2.063-12.75s-0.5-7.375-4.813-8.688s-7.938,1.813-9.938,5.375
					c-6.188,0.688-9.938,2.688-9.625,4.375c1.125-0.125,3.125-0.5,8.625-0.438c-3.563,0-5.875,0.875-6.438,1.938
					c3.75,1.063,8.5,1.875,8.063,8.375c-0.191,2.834-1.19,4.943-2.256,6.42c-4.254,0.693-8.023,0.422-8.994-2.545
					c-1.5-4.583-1.5-6.333-9.833-4.917s-24.333,1-33.333-8.75c-1.333,1.917-0.75,4.833,1.417,5.833
					c-1.75,1.25-5.167,5.25,2.417,6.833c-2,2.833-2.583,6.167,2.583,6.167c-1.583,3.083-3.333,5.917,3.583,5.5
					c-1.5,3.333-1.584,6.249,4.833,5.333c-1.75,3.167,0.833,6.001,5.583,3.834c-1.667,3.666,1.417,5.999,5.583,3.416
					c-0.833,3.584,2.917,7.666,7.25,2.25c0.417,5.084,6.5,4.25,7.917,0c1.417,5.334,4.417,6.834,7.583,1.917
					c0.212-0.33,0.442-0.619,0.682-0.883c1.136,3.441-0.513,5.515-2.391,8.278c-1.015,1.494-1.173,2.743-0.84,3.668
					c-4.036,2.558-7.676,6.352-9.869,14.687c-0.417,1.583-3.083-0.75-7.583-0.75s-9.5,4.333-11.417,8.583
					c4.333-4,9.167-4.25,9.167-4.25c-4.417,3.083-6.25,10.583-6.25,10.583c2.917-4.083,9-9.583,13.167-9.583s11.833,6.5,12.833,8
					c-1.917-6.5-5.083-9.167-6.583-10.417c-1.419-1.183,1.868-10.931,10.198-14.804c2.107,1.241,4.473,6.317,3.927,8.721
					c-0.625,2.75-3.625,3.375-1.375,3.375s1.375,3.125,2.875,6.625s4.146-2.156,5.375,0c3.063,5.375,5.063-2.125,4.938-5.625
					c2.563-2.875,1.375-6.188,0.313-6.063c0.25-0.813,0.25-2.688-0.125-4.313c-0.588-2.545-0.786-3.021,0.015-3.131
					c8.853,3.531,12.377,13.986,10.937,15.214c-1.467,1.25-4.563,3.917-6.438,10.417c0.978-1.5,8.476-8,12.551-8
					c4.074,0,9.979,5.5,12.831,9.583c0,0-1.77-7.5-6.09-10.583c0,0,4.75,0.25,8.987,4.25c-1.874-4.25-6.765-8.583-11.165-8.583
					s-7.008,2.333-7.416,0.75c-1.929-7.497-5.004-11.315-8.475-13.87c4.505-1.339,3.473-3.04,1.014-4.797
					c-1.467-1.048-1.391-2.799-0.701-4.782c2.662,2.736,5.055,0.998,6.274-3.593c1.417,4.25,7.5,5.084,7.917,0
					c4.332,5.416,8.083,1.334,7.25-2.25c4.166,2.583,7.25,0.25,5.583-3.416c4.75,2.167,7.333-0.667,5.583-3.834
					c6.418,0.916,6.334-2,4.834-5.333c6.916,0.417,5.166-2.417,3.583-5.5c5.167,0,4.583-3.333,2.583-6.167
					C261.365,169.817,257.948,165.817,256.198,164.567z"/>
				<ellipse cx="197.787" cy="154.476" rx="1.338" ry="1.477"/>
				<path d="M198.375,206.525c-0.375,1.125-1.563,2.25-4.438-1s-4.906-13.085-1.688-16.625c0.625-0.688,2.063-0.375,0.75,2.625
					s-0.766,2.875,1.492,2.563s0.57,1-0.992,2.813s1.454,2.834,3.938,1.23c0.938-0.605,1.251-0.026-1.438,3.27s1.313,4.938,1.875,4
					S198.375,206.525,198.375,206.525z"/>
				<path d="M184.063,179.65c-3.25,0.938-7.875,1.438-5.5-1.563s-3,0.751-3-1.25c0-3.688-0.938-1.188-2.375-1.5s1-3-2.688-2.688
					s-13.063,0.25-16.875-3.313c0.375,2.5,6.688,4.438,11,4.688s4.563,0.375,5.25,1.563s2.375,3.188,4.125,3.625
					C174.375,180.338,179.938,184.15,184.063,179.65z"/>
				<path d="M199.126,206.618c0.375,1.125,1.563,2.25,4.438-1c2.875-3.25,4.905-13.085,1.688-16.625
					c-0.625-0.688-2.063-0.375-0.75,2.625s0.766,2.875-1.492,2.563c-2.258-0.313-0.57,1,0.992,2.813s-1.455,2.834-3.938,1.23
					c-0.938-0.605-1.251-0.026,1.438,3.27c2.688,3.296-1.313,4.938-1.875,4S199.126,206.618,199.126,206.618z"/>
				<path d="M211.735,180.083c3.379,0.946,8.207,1.406,5.888-1.707c-2.302-3.089,3.083,0.748,3.181-1.327
					c0.179-3.777,1.023-1.23,2.512-1.562c1.481-0.33-0.891-3.045,2.841-2.744c3.702,0.299,12.999,0.197,16.721-3.314
					c-0.363,2.448-6.563,4.396-10.855,4.67c-4.343,0.277-4.6,0.406-5.338,1.618c-0.743,1.221-2.551,3.301-4.376,3.777
					C221.867,180.676,215.821,184.809,211.735,180.083z"/>
			</g>
			<g>
				<ellipse fill="none" stroke="#000000" stroke-miterlimit="15" cx="230.5" cy="212.455" rx="3.813" ry="4.695"/>
				<path fill="none" stroke="#000000" stroke-miterlimit="15" d="M226.688,212.455c0-3.758,0.813-6.805,3.813-6.805
					c3.25,0,3.813,3.047,3.813,6.805"/>
			</g>
			<g>
				<ellipse fill="none" stroke="#000000" stroke-miterlimit="15" cx="230.5" cy="153.455" rx="3.813" ry="4.695"/>
				<path fill="none" stroke="#000000" stroke-miterlimit="15" d="M226.688,153.455c0-3.758,0.813-6.805,3.813-6.805
					c3.25,0,3.813,3.047,3.813,6.805"/>
			</g>
			<g>
				<ellipse fill="none" stroke="#000000" stroke-miterlimit="15" cx="165.5" cy="212.455" rx="3.813" ry="4.695"/>
				<path fill="none" stroke="#000000" stroke-miterlimit="15" d="M161.688,212.455c0-3.758,0.813-6.805,3.813-6.805
					c3.25,0,3.813,3.047,3.813,6.805"/>
			</g>
			<g>
				<ellipse fill="none" stroke="#000000" stroke-miterlimit="15" cx="165.5" cy="153.455" rx="3.813" ry="4.695"/>
				<path fill="none" stroke="#000000" stroke-miterlimit="15" d="M161.688,153.455c0-3.758,0.813-6.805,3.813-6.805
					c3.25,0,3.813,3.047,3.813,6.805"/>
			</g>
		</g>
		<g>
			<polygon points="222.584,127.351 228.859,125.417 221.439,121.492 215.363,121.834 174.903,100.428 176.845,96.758 
				165.485,97.178 171.529,106.806 173.5,103.08 213.963,124.487 217.096,129.701 224.516,133.627 			"/>
			<polygon points="216.604,102.985 221.393,92.676 210.07,93.682 212.457,97.08 174.146,123.98 168.076,124.401 161.207,129.225 
				167.675,130.357 166.543,136.826 173.414,132.002 175.87,126.436 214.181,99.535 			"/>
			<path fill="#EF1C25" stroke="#000000" stroke-width="1.5" stroke-miterlimit="15" d="M194.25,102.275
				c7.604,0.559,18.248,6.803,11.875,19.125c-1.875,3.625-20.25-2.625-21.75-5.5S185.75,101.65,194.25,102.275z"/>
			<path fill="#EF1C25" stroke="#000000" stroke-width="1.5" stroke-miterlimit="15" d="M201.334,126.751
				c3.665,0.061,6.291,0.649,6.291-3.601s-1.496-15.059-12.625-14.375c-14.25,0.875-24.125,10.25-17.5,13.125
				S199.413,126.719,201.334,126.751z"/>
			<path fill="#EF1C25" stroke="#000000" stroke-width="1.5" stroke-miterlimit="15" d="M186.25,124.775
				c-2.174,4.537-3.5,8.25-1.125,9.125s6.375-3.5,7.375-6.25s2.125-6.375,0-7.875S187.073,123.058,186.25,124.775z"/>
		</g>
	</g>
</g>
<g id="Camada_5">
	<g id="Camada_4">
		<path fill="#D6D6D6" stroke="#000000" stroke-width="1.5" stroke-miterlimit="10" d="M165.404,330.661l6.47,2.316l2.634-7.357
			l-6.469-2.316c0.496-3.036,0.323-6.075-0.437-8.938l6.214-2.938l-3.341-7.063l-6.211,2.934c-1.73-2.405-3.97-4.468-6.632-6.012
			l2.317-6.47l-7.356-2.634l-2.317,6.47c-3.037-0.497-6.077-0.326-8.939,0.435l-2.937-6.212l-7.064,3.339l2.936,6.214
			c-2.405,1.73-4.469,3.97-6.012,6.63l-6.47-2.316l-2.634,7.356l6.47,2.317c-0.497,3.035-0.324,6.075,0.436,8.939l-6.212,2.938
			l3.339,7.064l6.212-2.936c1.729,2.405,3.969,4.468,6.631,6.011l-2.317,6.47l7.356,2.635l2.317-6.47
			c3.037,0.497,6.077,0.326,8.94-0.436l2.937,6.213l7.064-3.34l-2.935-6.212C161.797,335.563,163.86,333.321,165.404,330.661z
			 M133.18,319.121l8.655,3.1l-3.099,8.654C135.029,328.153,132.931,323.714,133.18,319.121z M147.569,306.209l-3.099,8.654
			l-8.655-3.1C138.538,308.057,142.977,305.959,147.569,306.209z M160.481,320.598l-8.655-3.1l3.1-8.656
			C158.633,311.565,160.731,316.005,160.481,320.598z M149.191,324.854l8.655,3.1c-2.722,3.708-7.161,5.806-11.755,5.557
			L149.191,324.854z"/>
		<path fill="#D6D6D6" stroke="#000000" stroke-width="1.5" stroke-miterlimit="10" d="M157.708,277.083l2.932-6.216l-7.069-3.332
			l-2.931,6.215c-2.974-0.786-6.016-0.909-8.939-0.429l-2.324-6.468l-7.353,2.643l2.32,6.467c-2.562,1.488-4.831,3.519-6.625,6.02
			l-6.215-2.932l-3.333,7.067l6.216,2.932c-0.788,2.974-0.911,6.017-0.43,8.939l-6.467,2.324l2.641,7.354l6.468-2.322
			c1.49,2.562,3.519,4.831,6.019,6.624l-2.931,6.217l7.068,3.332l2.931-6.216c2.974,0.788,6.016,0.91,8.94,0.43l2.323,6.468
			l7.354-2.643l-2.322-6.467c2.562-1.488,4.831-3.519,6.624-6.019l6.216,2.931l3.333-7.067l-6.216-2.931
			c0.789-2.975,0.911-6.017,0.431-8.94l6.467-2.324l-2.642-7.353l-6.467,2.321C162.24,281.147,160.208,278.878,157.708,277.083z
			 M143.111,308.043l3.921-8.315l8.314,3.92C152.279,307.074,147.658,308.734,143.111,308.043z M131.649,292.474l8.314,3.921
			l-3.922,8.314C132.616,301.642,130.957,297.02,131.649,292.474z M147.217,281.012l-3.921,8.315l-8.316-3.921
			C138.049,281.979,142.67,280.318,147.217,281.012z M150.364,292.66l3.921-8.315c3.428,3.067,5.086,7.688,4.396,12.236
			L150.364,292.66z"/>
		<path fill="#D6D6D6" stroke="#000000" stroke-width="1.5" stroke-miterlimit="10" d="M224.897,315.464h8.097v-9.207h-8.097
			c-0.656-3.566-2.056-6.87-4.037-9.745l5.727-5.728l-6.512-6.509l-5.726,5.723c-2.875-1.98-6.18-3.379-9.747-4.034v-8.098h-9.207
			v8.098c-3.566,0.655-6.871,2.054-9.745,4.034l-5.727-5.725l-6.51,6.511l5.725,5.728c-1.981,2.875-3.38,6.179-4.035,9.745h-8.099
			l0.001,9.207h8.098c0.655,3.566,2.054,6.87,4.035,9.746l-5.725,5.727l6.512,6.511l5.725-5.725c2.875,1.98,6.179,3.379,9.745,4.034
			v8.098h9.207v-8.098c3.567-0.655,6.872-2.054,9.747-4.034l5.727,5.725l6.51-6.511l-5.726-5.727
			C222.842,322.336,224.241,319.03,224.897,315.464z M184.562,315.464h10.833v10.834C190.202,324.751,186.11,320.66,184.562,315.464
			z M195.396,295.423v10.834h-10.833C186.11,301.061,190.202,296.97,195.396,295.423z M215.438,306.257h-10.835v-10.836
			C209.8,296.97,213.891,301.061,215.438,306.257z M204.603,315.464h10.835c-1.547,5.196-5.638,9.287-10.835,10.836V315.464z"/>
		<path fill="#D6D6D6" stroke="#000000" stroke-width="1.5" stroke-miterlimit="10" d="M240.608,337.292l-2.936,6.212l7.064,3.34
			l2.937-6.213c2.863,0.762,5.903,0.933,8.94,0.436l2.316,6.47l7.356-2.635l-2.317-6.47c2.662-1.543,4.902-3.605,6.631-6.011
			l6.213,2.936l3.34-7.064l-6.213-2.938c0.76-2.864,0.933-5.904,0.436-8.939l6.471-2.317l-2.635-7.356l-6.471,2.316
			c-1.543-2.66-3.605-4.899-6.012-6.63l2.936-6.214l-7.064-3.339l-2.937,6.212c-2.862-0.761-5.903-0.932-8.939-0.435l-2.317-6.47
			l-7.355,2.634l2.316,6.47c-2.662,1.544-4.902,3.606-6.632,6.012l-6.211-2.934l-3.341,7.063l6.213,2.938
			c-0.76,2.863-0.932,5.902-0.437,8.938l-6.469,2.316l2.634,7.357l6.47-2.316C236.14,333.321,238.203,335.563,240.608,337.292z
			 M261.264,330.875l-3.099-8.654l8.654-3.1C267.069,323.714,264.972,328.153,261.264,330.875z M264.185,311.764l-8.654,3.1
			l-3.1-8.654C257.022,305.959,261.462,308.057,264.185,311.764z M245.074,308.842l3.101,8.656l-8.656,3.1
			C239.269,316.005,241.366,311.565,245.074,308.842z M253.909,333.511c-4.594,0.249-9.033-1.849-11.756-5.557l8.655-3.1
			L253.909,333.511z"/>
		<path fill="#D6D6D6" stroke="#000000" stroke-width="1.5" stroke-miterlimit="10" d="M244.018,313.09l-2.322,6.468l7.354,2.642
			l2.324-6.467c2.924,0.48,5.966,0.357,8.94-0.431l2.931,6.216l7.067-3.333l-2.932-6.215c2.501-1.794,4.531-4.063,6.021-6.625
			l6.466,2.322l2.643-7.354l-6.467-2.324c0.479-2.924,0.357-5.966-0.431-8.94l6.216-2.93l-3.332-7.069l-6.217,2.932
			c-1.793-2.5-4.063-4.529-6.624-6.019l2.322-6.468l-7.354-2.642l-2.324,6.467c-2.924-0.48-5.966-0.358-8.94,0.431l-2.931-6.216
			l-7.067,3.333l2.932,6.216c-2.501,1.793-4.531,4.062-6.021,6.624l-6.465-2.32l-2.644,7.353l6.468,2.324
			c-0.479,2.923-0.357,5.965,0.429,8.938l-6.215,2.931l3.332,7.069l6.216-2.933C239.188,309.57,241.457,311.602,244.018,313.09z
			 M263.957,304.708l-3.921-8.313l8.315-3.921C269.044,297.02,267.384,301.641,263.957,304.708z M265.019,285.404l-8.314,3.922
			l-3.921-8.314C257.329,280.318,261.95,281.979,265.019,285.404z M245.716,284.343l3.921,8.316l-8.316,3.921
			C240.628,292.033,242.288,287.412,245.716,284.343z M256.891,308.043c-4.548,0.691-9.169-0.968-12.236-4.396l8.315-3.921
			L256.891,308.043z"/>
	</g>
	<path fill="#00ADF2" stroke="#000000" stroke-miterlimit="10" d="M372.5,217.775c-13,18.25-43.75,56.75-110.5,72.5l16.739,35.242
		c66.75-15.75,105.5-63.25,118.5-81.5l-26.989,5.258L372.5,217.775z"/>
	<path stroke="#000000" stroke-linejoin="round" stroke-miterlimit="10" d="M275.148,317.957c9.775-3.005,15.352-5.432,15.352-5.432
		l-11.761,12.992L275.148,317.957"/>
	<path fill="#00ADF2" stroke="#000000" stroke-miterlimit="10" d="M27.5,217.775c13,18.25,43.75,56.75,110.5,72.5l-16.739,35.242
		c-66.75-15.75-105.5-63.25-118.5-81.5l26.989,5.258L27.5,217.775z"/>
	<path stroke="#000000" stroke-linejoin="round" stroke-miterlimit="10" d="M124.852,317.957
		c-9.775-3.005-15.352-5.432-15.352-5.432l11.761,12.992L124.852,317.957"/>
	<path fill="#00ADF2" stroke="#000000" stroke-miterlimit="10" d="M283.223,276.964c-13.517,5.897-44.656,17.312-83.223,17.312
		s-69.706-11.414-83.223-17.312l-7.277,35.562c0,0,38.5,16.75,90.5,16.75s90.5-16.75,90.5-16.75L283.223,276.964z"/>
	<g>
		<path fill="#FFFFFF" d="M136.781,306.85l5.624,0.89c-0.081,0.928,0.011,1.668,0.274,2.223c0.43,0.897,1.203,1.47,2.318,1.719
			c0.832,0.186,1.517,0.134,2.054-0.156c0.538-0.29,0.864-0.692,0.979-1.207c0.109-0.489-0.008-0.975-0.351-1.456
			c-0.343-0.481-1.257-1.068-2.741-1.76c-2.428-1.145-4.081-2.314-4.958-3.51c-0.886-1.197-1.164-2.533-0.835-4.009
			c0.216-0.97,0.701-1.822,1.456-2.56c0.754-0.736,1.75-1.226,2.988-1.468c1.238-0.241,2.839-0.144,4.804,0.295
			c2.41,0.538,4.148,1.396,5.214,2.574s1.5,2.772,1.304,4.782l-5.566-0.903c0.043-0.882-0.125-1.568-0.507-2.059
			s-0.984-0.827-1.807-1.011c-0.678-0.151-1.221-0.121-1.627,0.09c-0.407,0.211-0.657,0.521-0.749,0.934
			c-0.067,0.301,0.014,0.603,0.244,0.905c0.219,0.311,0.819,0.688,1.801,1.131c2.425,1.117,4.126,2.08,5.104,2.888
			s1.624,1.684,1.94,2.628c0.316,0.943,0.36,1.931,0.13,2.96c-0.27,1.209-0.853,2.25-1.75,3.121
			c-0.897,0.872-2.004,1.438-3.323,1.697s-2.892,0.186-4.719-0.222c-3.208-0.716-5.292-1.828-6.252-3.339
			S136.519,308.79,136.781,306.85z"/>
		<path fill="#FFFFFF" d="M171.291,300.169l5.903,0.815l-1.576,11.407c-0.156,1.131-0.48,2.175-0.971,3.131
			c-0.492,0.956-1.166,1.759-2.023,2.407s-1.72,1.067-2.589,1.258c-1.208,0.268-2.618,0.29-4.228,0.067
			c-0.932-0.129-1.939-0.334-3.022-0.616c-1.083-0.283-1.969-0.669-2.655-1.158c-0.687-0.489-1.288-1.134-1.803-1.932
			c-0.516-0.798-0.834-1.592-0.956-2.38c-0.198-1.269-0.231-2.372-0.102-3.313l1.575-11.406l5.903,0.815l-1.613,11.678
			c-0.144,1.044,0.033,1.899,0.531,2.567c0.498,0.667,1.26,1.071,2.288,1.213c1.019,0.141,1.857-0.038,2.517-0.536
			c0.659-0.499,1.062-1.278,1.208-2.34L171.291,300.169z"/>
		<path fill="#FFFFFF" d="M179.737,301.19l16.878,0.894l-0.204,3.857l-11.432,10.723l11.229,0.595l-0.22,4.146l-18.313-0.97
			l0.212-4.002l11.313-10.609l-9.681-0.513L179.737,301.19z"/>
		<path fill="#FFFFFF" d="M212.163,317.803l-6.775,0.246l-0.825,3.223l-6.094,0.223l6.556-19.579l6.51-0.237l7.961,19.05
			l-6.25,0.228L212.163,317.803z M210.772,313.671l-2.385-6.865l-1.856,7.02L210.772,313.671z"/>
		<path fill="#FFFFFF" d="M220.174,301.229l5.532-0.701l8.564,9.691l-1.346-10.607l5.585-0.708l2.433,19.173l-5.585,0.709
			l-8.516-9.617l1.335,10.527l-5.571,0.707L220.174,301.229z"/>
		<path fill="#FFFFFF" d="M243.059,307.963c-0.674-3.083-0.34-5.67,1.003-7.763c1.342-2.093,3.546-3.474,6.611-4.144
			c3.143-0.687,5.748-0.372,7.816,0.943c2.069,1.315,3.436,3.493,4.1,6.533c0.482,2.207,0.507,4.098,0.072,5.672
			c-0.434,1.575-1.268,2.908-2.499,4.001c-1.232,1.093-2.896,1.867-4.991,2.325c-2.13,0.466-3.966,0.512-5.51,0.138
			c-1.543-0.373-2.909-1.199-4.097-2.478C244.376,311.912,243.541,310.17,243.059,307.963z M248.898,306.714
			c0.417,1.906,1.07,3.198,1.961,3.876c0.89,0.679,1.945,0.884,3.164,0.617c1.254-0.273,2.135-0.894,2.644-1.859
			s0.532-2.505,0.07-4.617c-0.388-1.777-1.03-2.997-1.927-3.661c-0.896-0.663-1.958-0.86-3.186-0.592
			c-1.177,0.257-2.03,0.88-2.561,1.868C248.533,303.334,248.479,304.79,248.898,306.714z"/>
	</g>
	<g>
		<path fill="#FFFFFF" d="M312.245,282.401l8.925,17.515l-4.84,2.466l-5.848-11.477c-0.48,0.995-0.992,1.862-1.537,2.604
			s-1.283,1.562-2.216,2.461l-1.999-3.924c1.361-1.354,2.305-2.629,2.83-3.824s0.768-2.463,0.726-3.803L312.245,282.401z"/>
		<path fill="#FFFFFF" d="M323.998,293.498l4.164-3.409c0.516,0.559,0.997,0.879,1.444,0.962c0.446,0.083,0.874-0.005,1.283-0.262
			c0.729-0.458,1.067-1.185,1.014-2.178c-0.043-0.73-0.542-2.021-1.496-3.871c-0.193,0.899-0.494,1.66-0.903,2.28
			c-0.41,0.62-0.99,1.167-1.742,1.639c-1.467,0.921-3.031,1.177-4.693,0.769c-1.663-0.408-2.995-1.409-3.995-3.002
			c-0.683-1.087-1.048-2.238-1.095-3.454c-0.048-1.215,0.235-2.335,0.849-3.358c0.612-1.023,1.601-1.963,2.962-2.818
			c1.638-1.028,3.128-1.572,4.471-1.632s2.694,0.337,4.056,1.189c1.36,0.853,2.672,2.284,3.934,4.293
			c1.856,2.955,2.594,5.51,2.213,7.663c-0.38,2.154-1.672,3.923-3.875,5.307c-1.303,0.818-2.425,1.313-3.365,1.483
			c-0.941,0.17-1.844,0.122-2.707-0.146S324.813,294.201,323.998,293.498z M327.785,280.938c-0.556-0.886-1.215-1.439-1.978-1.662
			c-0.762-0.222-1.463-0.132-2.104,0.271c-0.603,0.379-0.961,0.92-1.073,1.624c-0.113,0.704,0.115,1.511,0.686,2.418
			c0.575,0.916,1.221,1.485,1.938,1.71c0.718,0.225,1.385,0.143,2.002-0.245c0.641-0.402,1.025-0.971,1.155-1.706
			S328.332,281.809,327.785,280.938z"/>
		<path fill="#FFFFFF" d="M347.497,278.396l-7.764,5.951l-2.687-3.505l0.688-15.18l3.715-2.848l7.228,9.427l1.925-1.476l2.534,3.306
			l-1.925,1.477l2.198,2.866l-3.715,2.848L347.497,278.396z M344.962,275.09l-3.7-4.827l-0.401,7.973L344.962,275.09z"/>
		<path fill="#FFFFFF" d="M354.754,271.716l3.479-4.106c0.608,0.455,1.14,0.684,1.594,0.684c0.454,0.001,0.859-0.162,1.216-0.489
			c0.634-0.582,0.835-1.357,0.603-2.325c-0.175-0.711-0.899-1.889-2.173-3.536c-0.026,0.92-0.186,1.722-0.476,2.406
			s-0.763,1.326-1.416,1.927c-1.275,1.171-2.768,1.706-4.478,1.605c-1.709-0.101-3.2-0.844-4.473-2.229
			c-0.867-0.945-1.435-2.011-1.701-3.198c-0.267-1.187-0.191-2.339,0.227-3.457c0.417-1.117,1.219-2.22,2.403-3.308
			c1.424-1.308,2.791-2.112,4.101-2.414c1.311-0.302,2.712-0.157,4.204,0.436c1.492,0.592,3.041,1.762,4.646,3.51
			c2.36,2.57,3.548,4.949,3.563,7.136c0.016,2.188-0.935,4.161-2.851,5.921c-1.133,1.04-2.147,1.729-3.042,2.067
			s-1.79,0.454-2.688,0.348S355.683,272.26,354.754,271.716z M356.205,258.678c-0.707-0.771-1.456-1.196-2.245-1.276
			c-0.79-0.08-1.463,0.136-2.02,0.646c-0.524,0.481-0.779,1.079-0.763,1.792s0.388,1.464,1.112,2.254
			c0.731,0.796,1.47,1.24,2.216,1.331c0.745,0.091,1.387-0.11,1.924-0.604c0.557-0.511,0.833-1.14,0.827-1.887
			C357.251,260.188,356.9,259.435,356.205,258.678z"/>
	</g>
	<g>
		<path fill="#FFFFFF" d="M53.971,258.894l-13.212,14.554l-4.021-3.651l8.658-9.536c-1.1-0.097-2.093-0.268-2.979-0.515
			c-0.886-0.246-1.915-0.646-3.086-1.199l2.96-3.261c1.749,0.793,3.275,1.224,4.579,1.291c1.304,0.068,2.575-0.155,3.813-0.669
			L53.971,258.894z"/>
		<path fill="#FFFFFF" d="M47.704,273.789l4.643,2.722c-0.344,0.678-0.478,1.24-0.4,1.688c0.077,0.447,0.308,0.818,0.691,1.113
			c0.683,0.524,1.481,0.59,2.395,0.194c0.669-0.294,1.706-1.21,3.11-2.747c-0.91,0.131-1.728,0.112-2.452-0.056
			c-0.724-0.169-1.438-0.523-2.142-1.064c-1.373-1.056-2.156-2.435-2.35-4.136c-0.194-1.701,0.282-3.298,1.429-4.788
			c0.782-1.018,1.735-1.76,2.858-2.226c1.124-0.467,2.272-0.591,3.444-0.371s2.396,0.82,3.671,1.801
			c1.533,1.179,2.561,2.387,3.083,3.626c0.522,1.238,0.62,2.644,0.292,4.216c-0.327,1.572-1.214,3.299-2.661,5.18
			c-2.126,2.767-4.266,4.345-6.418,4.735c-2.152,0.391-4.259-0.206-6.322-1.792c-1.219-0.938-2.072-1.818-2.559-2.642
			s-0.755-1.686-0.804-2.588S47.328,274.798,47.704,273.789z M60.797,272.98c0.638-0.829,0.928-1.64,0.872-2.431
			c-0.056-0.792-0.384-1.418-0.983-1.879c-0.564-0.434-1.196-0.582-1.896-0.443s-1.376,0.633-2.03,1.482
			c-0.659,0.857-0.969,1.661-0.931,2.411s0.347,1.348,0.925,1.792c0.599,0.461,1.266,0.625,2.001,0.491
			C59.49,274.271,60.171,273.796,60.797,272.98z"/>
		<path fill="#FFFFFF" d="M80.411,278.201l-10.547,16.588l-4.583-2.914l6.911-10.869c-1.1,0.092-2.107,0.092-3.022-0.001
			c-0.916-0.092-1.997-0.312-3.246-0.657l2.362-3.716c1.859,0.484,3.436,0.648,4.732,0.493c1.296-0.154,2.511-0.591,3.644-1.308
			L80.411,278.201z"/>
		<path fill="#FFFFFF" d="M76.825,293.975l5.052,1.854c-0.218,0.729-0.25,1.306-0.094,1.732s0.448,0.751,0.877,0.973
			c0.765,0.396,1.562,0.318,2.391-0.232c0.607-0.409,1.464-1.494,2.573-3.256c-0.873,0.291-1.68,0.417-2.423,0.38
			s-1.508-0.26-2.296-0.668c-1.538-0.795-2.554-2.012-3.047-3.652c-0.493-1.64-0.308-3.295,0.556-4.966
			c0.589-1.14,1.395-2.039,2.418-2.697c1.023-0.659,2.131-0.984,3.324-0.976c1.193,0.008,2.504,0.381,3.933,1.12
			c1.718,0.888,2.943,1.895,3.677,3.021c0.733,1.126,1.079,2.492,1.036,4.098c-0.043,1.604-0.61,3.462-1.699,5.569
			c-1.602,3.1-3.427,5.033-5.476,5.8c-2.048,0.767-4.228,0.553-6.539-0.642c-1.367-0.707-2.362-1.422-2.987-2.146
			c-0.625-0.724-1.042-1.525-1.25-2.404C76.643,296.002,76.634,295.033,76.825,293.975z M89.568,290.854
			c0.48-0.929,0.623-1.778,0.426-2.547c-0.196-0.77-0.63-1.328-1.301-1.675c-0.632-0.327-1.281-0.36-1.944-0.1
			c-0.664,0.261-1.242,0.867-1.734,1.819c-0.497,0.96-0.659,1.807-0.488,2.538s0.581,1.265,1.229,1.6
			c0.672,0.347,1.357,0.39,2.056,0.128C88.51,292.355,89.096,291.769,89.568,290.854z"/>
	</g>
</g>
<g id="Camada_2">
	<path fill="#D6D6D6" stroke="#000000" stroke-miterlimit="10" d="M194.668,27.344c-3.452,0.053-6.838,0.161-10.17,0.324
		l-1.191,4.061c-1.236,0.066-2.465,0.14-3.687,0.221l-2.003-3.859c-2.417,0.179-4.809,0.39-7.178,0.631l-0.988,4.103
		c-1.365,0.145-2.722,0.3-4.073,0.465l-1.822-3.77c-2.738,0.356-5.451,0.755-8.146,1.199l10.215,31.305l22.125-2L194.668,27.344z"/>
	<path fill="#D6D6D6" stroke="#000000" stroke-miterlimit="10" d="M143.525,33.708c-3.39,0.651-6.707,1.346-9.959,2.085L133.098,40
		c-1.206,0.28-2.403,0.565-3.592,0.858l-2.643-3.452c-2.35,0.596-4.668,1.219-6.959,1.868l-0.261,4.212
		c-1.319,0.379-2.628,0.768-3.93,1.166l-2.449-3.396c-2.634,0.826-5.237,1.69-7.813,2.595l15.496,29.055l21.441-5.812
		L143.525,33.708z"/>
	<path fill="#D6D6D6" stroke="#000000" stroke-miterlimit="10" d="M204.664,27.344c3.452,0.053,6.839,0.161,10.171,0.324
		l1.191,4.061c1.236,0.066,2.466,0.14,3.687,0.221l2.004-3.859c2.418,0.179,4.809,0.39,7.178,0.631l0.988,4.103
		c1.365,0.145,2.723,0.3,4.073,0.465l1.821-3.77c2.738,0.356,5.451,0.755,8.146,1.199l-10.216,31.305l-22.125-2L204.664,27.344z"/>
	<path fill="#D6D6D6" stroke="#000000" stroke-miterlimit="10" d="M255.808,33.708c3.39,0.651,6.706,1.346,9.96,2.085L266.235,40
		c1.206,0.28,2.403,0.565,3.593,0.858l2.643-3.452c2.35,0.596,4.668,1.219,6.959,1.868l0.262,4.212
		c1.318,0.379,2.628,0.768,3.93,1.166l2.449-3.396c2.634,0.826,5.236,1.69,7.813,2.595l-15.496,29.055l-21.441-5.812L255.808,33.708
		z"/>
	<g>
		<path fill="none" stroke="#000000" stroke-miterlimit="10" d="M293.049,71.594c-31.195-12.458-58.736-18.287-93.382-18.287
			s-62.188,5.83-93.382,18.287"/>
		<path fill="none" stroke="#000000" stroke-miterlimit="10" d="M106.285,66.594c31.194-12.458,58.736-18.287,93.382-18.287
			s62.187,5.83,93.382,18.287"/>
		<path fill="none" stroke="#000000" stroke-miterlimit="10" d="M106.285,61.594c31.194-12.458,58.736-18.287,93.382-18.287
			s62.187,5.83,93.382,18.287"/>
		<path fill="none" stroke="#000000" stroke-miterlimit="10" d="M106.285,56.594c31.194-12.458,58.736-18.287,93.382-18.287
			s62.187,5.83,93.382,18.287"/>
	</g>
	<g>
		<polygon fill="#D6D6D6" stroke="#000000" stroke-miterlimit="10" points="155.002,18.487 156.142,24.949 156.879,27.993 
			170.936,62.958 139.545,68.493 140.795,30.829 140.447,27.717 139.307,21.254 		"/>
		<path fill="#D6D6D6" stroke="#000000" stroke-miterlimit="10" d="M159.748,25.9c0.15,0.85-0.417,1.66-1.267,1.81l-19.288,3.401
			c-0.85,0.15-1.66-0.417-1.81-1.267l0,0c-0.15-0.85,0.417-1.66,1.268-1.81l19.287-3.401C158.789,24.483,159.598,25.05,159.748,25.9
			L159.748,25.9z"/>
		<path d="M144.107,67.979c0,0,1.187-13.22,1.586-18.605s3.006-6.797,5.391-7.218s5.317,0.015,7.534,4.938
			c2.217,4.924,7.854,16.94,7.854,16.94L144.107,67.979z"/>
		<polygon fill="#D6D6D6" stroke="#000000" stroke-miterlimit="10" points="141.394,8.193 141.725,14.269 137.313,15.047 
			134.829,9.351 129.289,10.328 134.754,23.326 159.989,18.876 160.679,4.793 155.14,5.77 154.754,11.972 150.341,12.75 
			148.575,6.927 		"/>
	</g>
	<g>
		<polygon fill="#D6D6D6" stroke="#000000" stroke-miterlimit="10" points="109.986,76.93 126.689,71.942 101.275,30.914 
			88.299,36.364 		"/>
		<path d="M99.811,57.896l10.158,19.033l10.531-3.092l-9.341-13.25C108.208,56.9,99.811,57.896,99.811,57.896z"/>
		<path fill="#D6D6D6" stroke="#000000" stroke-width="0.9399" stroke-miterlimit="10" d="M109.236,38.39
			c0.295,0.811-0.046,1.68-0.762,1.94l-16.258,5.917c-0.716,0.261-1.536-0.185-1.831-0.996l0,0c-0.295-0.811,0.046-1.679,0.763-1.94
			l16.257-5.917C108.122,37.133,108.941,37.579,109.236,38.39L109.236,38.39z"/>
		<polygon fill="#D6D6D6" stroke="#000000" stroke-width="1.1509" stroke-miterlimit="10" points="86.819,38.989 103.884,32.778 
			103.071,18.442 96.07,20.99 96.323,27.327 90.746,29.356 87.773,24.01 79.423,27.049 		"/>
	</g>
	<g>
		<polygon fill="#D6D6D6" stroke="#000000" stroke-miterlimit="10" points="207.635,14.505 207.635,21.067 207.833,24.192 
			215.604,61.067 183.729,61.067 191.5,24.192 191.698,21.067 191.698,14.505 		"/>
		<path fill="#D6D6D6" stroke="#000000" stroke-miterlimit="10" d="M211.021,22.63c0,0.863-0.699,1.563-1.563,1.563h-19.585
			c-0.863,0-1.563-0.7-1.563-1.563l0,0c0-0.863,0.699-1.563,1.563-1.563h19.585C210.322,21.067,211.021,21.767,211.021,22.63
			L211.021,22.63z"/>
		<path d="M188.312,61.354c0,0,3.464-12.813,4.792-18.047s4.141-6.172,6.563-6.172c2.421,0,5.234,0.938,6.562,6.172
			s4.793,18.047,4.793,18.047H188.312z"/>
		<polygon fill="#D6D6D6" stroke="#000000" stroke-miterlimit="10" points="196.021,2.005 195.292,8.046 190.812,8.046 
			189.354,2.005 183.729,2.005 186.854,15.755 212.479,15.755 215.604,2.005 209.979,2.005 208.521,8.046 204.041,8.046 
			203.313,2.005 		"/>
	</g>
	<g>
		<polygon fill="#D6D6D6" stroke="#000000" stroke-miterlimit="10" points="244.331,18.487 243.191,24.949 242.453,27.993 
			228.397,62.958 259.788,68.493 258.538,30.829 258.887,27.717 260.025,21.254 		"/>
		<path fill="#D6D6D6" stroke="#000000" stroke-miterlimit="10" d="M239.585,25.9c-0.149,0.85,0.417,1.66,1.267,1.81l19.288,3.401
			c0.851,0.15,1.66-0.417,1.81-1.267l0,0c0.15-0.85-0.417-1.66-1.268-1.81l-19.287-3.401C240.545,24.483,239.734,25.05,239.585,25.9
			L239.585,25.9z"/>
		<path d="M255.226,67.979c0,0-1.187-13.22-1.586-18.605s-3.007-6.797-5.392-7.218s-5.316,0.015-7.533,4.938
			c-2.217,4.924-7.854,16.94-7.854,16.94L255.226,67.979z"/>
		<polygon fill="#D6D6D6" stroke="#000000" stroke-miterlimit="10" points="257.939,8.193 257.608,14.269 262.02,15.047 
			264.504,9.351 270.044,10.328 264.579,23.326 239.344,18.876 238.654,4.793 244.193,5.77 244.579,11.972 248.992,12.75 
			250.758,6.927 		"/>
	</g>
	<g>
		<polygon fill="#D6D6D6" stroke="#000000" stroke-miterlimit="10" points="289.347,76.93 272.645,71.942 298.059,30.914 
			311.034,36.364 		"/>
		<path d="M299.522,57.896L289.364,76.93l-10.531-3.092l9.341-13.25C291.125,56.9,299.522,57.896,299.522,57.896z"/>
		<path fill="#D6D6D6" stroke="#000000" stroke-width="0.9399" stroke-miterlimit="10" d="M290.097,38.39
			c-0.295,0.811,0.046,1.68,0.763,1.94l16.258,5.917c0.716,0.261,1.535-0.185,1.83-0.996l0,0c0.296-0.811-0.046-1.679-0.762-1.94
			l-16.258-5.917C291.211,37.133,290.393,37.579,290.097,38.39L290.097,38.39z"/>
		<polygon fill="#D6D6D6" stroke="#000000" stroke-width="1.1509" stroke-miterlimit="10" points="312.514,38.989 295.449,32.778 
			296.262,18.442 303.263,20.99 303.01,27.327 308.587,29.356 311.561,24.01 319.91,27.049 		"/>
	</g>
	<path fill="#D6D6D6" stroke="#000000" stroke-miterlimit="10" d="M199.667,70.807c31.04,0,56.38,6.55,83.75,16.988l3.299-7.978
		c-28.646-11.177-54.766-18.261-87.048-18.261c-32.282,0-58.401,7.084-87.049,18.261l3.299,7.978
		C143.286,77.357,168.627,70.807,199.667,70.807z"/>
	<path fill="#D6D6D6" stroke="#000000" stroke-miterlimit="10" d="M199.667,63.307c33.666,0,60.613,7.68,90.731,19.697l2.651-6.41
		c-31.195-12.458-58.736-18.287-93.382-18.287s-62.188,5.83-93.382,18.287l2.651,6.41C139.054,70.986,166.001,63.307,199.667,63.307
		z"/>
	<path fill="#D6D6D6" stroke="#000000" stroke-miterlimit="10" d="M199.667,75.807c31.998,0,57.932,6.948,86.283,17.953l2.225-5.378
		c-29.225-11.508-55.676-18.825-88.507-18.825s-59.282,7.317-88.507,18.825l2.225,5.378
		C141.734,82.754,167.669,75.807,199.667,75.807z"/>
</g>
</svg>
