<svg id="visual" viewBox="0 0 960 540" width="960" height="540" xmlns="http://www.w3.org/2000/svg" xmlns:xlink="http://www.w3.org/1999/xlink" version="1.1"><path d="M0 370L22.8 370.2C45.7 370.3 91.3 370.7 137 368.5C182.7 366.3 228.3 361.7 274 360.2C319.7 358.7 365.3 360.3 411.2 368C457 375.7 503 389.3 548.8 393C594.7 396.7 640.3 390.3 686 384C731.7 377.7 777.3 371.3 823 370C868.7 368.7 914.3 372.3 937.2 374.2L960 376L960 541L937.2 541C914.3 541 868.7 541 823 541C777.3 541 731.7 541 686 541C640.3 541 594.7 541 548.8 541C503 541 457 541 411.2 541C365.3 541 319.7 541 274 541C228.3 541 182.7 541 137 541C91.3 541 45.7 541 22.8 541L0 541Z" fill="#afe8ff"></path><path d="M0 381L22.8 387.3C45.7 393.7 91.3 406.3 137 410.2C182.7 414 228.3 409 274 410C319.7 411 365.3 418 411.2 421.7C457 425.3 503 425.7 548.8 414.3C594.7 403 640.3 380 686 375C731.7 370 777.3 383 823 385C868.7 387 914.3 378 937.2 373.5L960 369L960 541L937.2 541C914.3 541 868.7 541 823 541C777.3 541 731.7 541 686 541C640.3 541 594.7 541 548.8 541C503 541 457 541 411.2 541C365.3 541 319.7 541 274 541C228.3 541 182.7 541 137 541C91.3 541 45.7 541 22.8 541L0 541Z" fill="#c5eeff"></path><path d="M0 459L22.8 454.5C45.7 450 91.3 441 137 431.7C182.7 422.3 228.3 412.7 274 407.3C319.7 402 365.3 401 411.2 401.8C457 402.7 503 405.3 548.8 409.3C594.7 413.3 640.3 418.7 686 416.5C731.7 414.3 777.3 404.7 823 404.3C868.7 404 914.3 413 937.2 417.5L960 422L960 541L937.2 541C914.3 541 868.7 541 823 541C777.3 541 731.7 541 686 541C640.3 541 594.7 541 548.8 541C503 541 457 541 411.2 541C365.3 541 319.7 541 274 541C228.3 541 182.7 541 137 541C91.3 541 45.7 541 22.8 541L0 541Z" fill="#d9f4ff"></path><path d="M0 488L22.8 481.3C45.7 474.7 91.3 461.3 137 453.3C182.7 445.3 228.3 442.7 274 448.8C319.7 455 365.3 470 411.2 472C457 474 503 463 548.8 456.3C594.7 449.7 640.3 447.3 686 447.8C731.7 448.3 777.3 451.7 823 454C868.7 456.3 914.3 457.7 937.2 458.3L960 459L960 541L937.2 541C914.3 541 868.7 541 823 541C777.3 541 731.7 541 686 541C640.3 541 594.7 541 548.8 541C503 541 457 541 411.2 541C365.3 541 319.7 541 274 541C228.3 541 182.7 541 137 541C91.3 541 45.7 541 22.8 541L0 541Z" fill="#ecfaff"></path><path d="M0 475L22.8 475.7C45.7 476.3 91.3 477.7 137 481.7C182.7 485.7 228.3 492.3 274 497.2C319.7 502 365.3 505 411.2 506.3C457 507.7 503 507.3 548.8 507.7C594.7 508 640.3 509 686 510.5C731.7 512 777.3 514 823 508C868.7 502 914.3 488 937.2 481L960 474L960 541L937.2 541C914.3 541 868.7 541 823 541C777.3 541 731.7 541 686 541C640.3 541 594.7 541 548.8 541C503 541 457 541 411.2 541C365.3 541 319.7 541 274 541C228.3 541 182.7 541 137 541C91.3 541 45.7 541 22.8 541L0 541Z" fill="#ffffff"></path></svg>